<?xml version="1.0" encoding="UTF-8" standalone="no"?><!DOCTYPE svg PUBLIC "-//W3C//DTD SVG 1.1//EN" "http://www.w3.org/Graphics/SVG/1.1/DTD/svg11.dtd"><svg width="100%" height="100%" viewBox="0 0 256 256" version="1.1" xmlns="http://www.w3.org/2000/svg" xmlns:xlink="http://www.w3.org/1999/xlink" xml:space="preserve" xmlns:serif="http://www.serif.com/" style="fill-rule:evenodd;clip-rule:evenodd;stroke-linecap:round;stroke-linejoin:round;stroke-miterlimit:1.5;"><g id="Pot"><path d="M205.405,102.167c0,-4.419 -3.588,-8.007 -8.007,-8.007l-139.461,0c-4.052,0 -7.342,3.289 -7.342,7.341l0,82.942c0,21.07 17.106,38.176 38.176,38.176l77.715,0c21.48,0 38.919,-17.439 38.919,-38.919l0,-81.533Z" style="fill:none;stroke:#3a3542;stroke-width:6px;"/><path d="M50.595,127.098c0,0 -0.303,-29.944 -29.095,-29.944" style="fill:none;stroke:#3a3542;stroke-width:6px;"/><path d="M205.405,127.098c0,0 0.303,-29.944 29.095,-29.944" style="fill:none;stroke:#3a3542;stroke-width:6px;"/></g><g><path d="M149.169,176.733c3.821,-0.396 6.72,-3.69 6.588,-7.642c-0.132,-3.953 -3.426,-7.115 -7.378,-7.115l-0.264,0c-4.084,0.132 -7.246,3.558 -7.114,7.642c0.132,1.976 0.922,3.689 2.108,4.875c-4.48,8.827 -11.331,15.283 -21.608,20.685c-6.983,3.689 -14.229,5.007 -21.475,4.084c-5.929,-0.79 -10.54,-3.425 -13.439,-7.773c-4.216,-6.456 -4.611,-13.439 -1.054,-20.422c2.503,-5.006 6.456,-8.695 8.959,-10.54c-0.527,-1.713 -1.317,-4.611 -1.713,-6.719c-19.104,13.834 -17.128,32.543 -11.33,41.37c4.347,6.588 13.175,10.672 22.925,10.672c2.635,0 5.27,-0.264 7.905,-0.922c16.864,-3.294 29.644,-13.307 36.89,-28.195Z" style="fill:#764abc;fill-rule:nonzero;"/><path d="M172.358,160.395c-10.013,-11.726 -24.77,-18.182 -41.634,-18.182l-2.108,0c-1.186,-2.371 -3.689,-3.952 -6.456,-3.952l-0.263,0c-4.085,0.132 -7.247,3.557 -7.115,7.641c0.132,3.953 3.426,7.115 7.378,7.115l0.264,0c2.898,-0.132 5.402,-1.976 6.456,-4.479l2.371,0c10.013,0 19.499,2.898 28.063,8.563c6.588,4.348 11.331,10.014 13.966,16.865c2.24,5.533 2.108,10.935 -0.263,15.547c-3.689,6.982 -9.882,10.803 -18.05,10.803c-5.271,0 -10.277,-1.581 -12.912,-2.767c-1.449,1.318 -4.085,3.426 -5.929,4.744c5.665,2.635 11.462,4.084 16.996,4.084c12.648,0 22.003,-6.983 25.56,-13.966c3.821,-7.642 3.557,-20.817 -6.324,-32.016Z" style="fill:#764abc;fill-rule:nonzero;"/><path d="M105.428,178.972c0.131,3.953 3.425,7.115 7.378,7.115l0.263,0c4.085,-0.132 7.247,-3.557 7.115,-7.642c-0.132,-3.952 -3.426,-7.114 -7.378,-7.114l-0.264,0c-0.263,0 -0.659,0 -0.922,0.131c-5.402,-8.959 -7.642,-18.708 -6.851,-29.249c0.527,-7.905 3.162,-14.756 7.773,-20.421c3.821,-4.875 11.199,-7.247 16.206,-7.378c13.966,-0.264 19.894,17.127 20.29,24.11c1.712,0.396 4.611,1.318 6.587,1.977c-1.581,-21.344 -14.756,-32.412 -27.404,-32.412c-11.858,0 -22.793,8.564 -27.141,21.213c-6.061,16.864 -2.108,33.07 5.27,45.85c-0.659,0.922 -1.054,2.371 -0.922,3.82Z" style="fill:#764abc;fill-rule:nonzero;"/></g><g id="Steam"><path d="M91.768,83.18c5.481,-6.974 9.478,-17.575 7.137,-25.252c-4.448,-14.584 -9.008,-16.456 -3.843,-28.547" style="fill:none;stroke:#764abc;stroke-width:6px;"/><path d="M124.706,83.18c5.481,-6.974 9.478,-17.575 7.137,-25.252c-4.448,-14.584 -9.007,-16.456 -3.843,-28.547" style="fill:none;stroke:#764abc;stroke-width:6px;"/><path d="M157.644,83.18c5.481,-6.974 9.478,-17.575 7.137,-25.252c-4.448,-14.584 -9.007,-16.456 -3.843,-28.547" style="fill:none;stroke:#764abc;stroke-width:6px;"/></g></svg>